<?xml version="1.0" standalone="no"?>
<!DOCTYPE svg PUBLIC "-//W3C//DTD SVG 20010904//EN"
 "http://www.w3.org/TR/2001/REC-SVG-20010904/DTD/svg10.dtd">
<svg version="1.0" xmlns="http://www.w3.org/2000/svg"
 width="247.000000pt" height="211.000000pt" viewBox="0 0 247.000000 211.000000"
 preserveAspectRatio="xMidYMid meet">

<g transform="translate(0.000000,211.000000) scale(0.100000,-0.100000)"
fill="#000000" stroke="none">
<path d="M522 1838 c-9 -9 -12 -73 -12 -224 l0 -213 -105 -157 -105 -157 0
-392 c0 -291 3 -394 12 -403 17 -17 1529 -17 1546 0 9 9 12 112 12 403 l0 392
-105 157 -105 157 0 82 0 82 -143 143 -142 142 -421 0 c-313 0 -423 -3 -432
-12z m776 -213 l3 -120 -68 67 -68 68 -275 2 -275 3 -3 39 c-6 71 -28 67 345
64 l338 -3 3 -120z m172 -28 c0 -4 -15 -7 -32 -5 -31 3 -33 6 -36 43 l-3 40
35 -34 c20 -19 36 -39 36 -44z m-382 -176 c1 -63 7 -121 13 -128 8 -8 48 -13
127 -15 l117 -3 3 -77 3 -78 -371 0 -370 0 0 210 0 210 238 -2 237 -3 3 -114z
m472 -116 l0 -185 -55 0 -55 0 0 116 0 116 -67 69 -66 69 121 0 122 0 0 -185z
m-328 118 c37 -35 35 -43 -7 -43 -33 0 -35 2 -35 35 0 42 5 43 42 8z m-722
-268 c0 -33 -2 -35 -31 -35 -30 0 -31 1 -17 23 8 12 18 28 22 35 14 23 26 12
26 -23z m1191 -3 l21 -32 -31 0 c-29 0 -31 2 -31 36 0 42 13 41 41 -4z m69
-457 l0 -315 -685 0 -685 0 0 315 0 315 685 0 685 0 0 -315z"/>
<path d="M790 730 c-23 -23 -24 -33 -10 -61 10 -18 24 -19 305 -19 281 0 295
1 305 19 14 28 13 38 -10 61 -19 19 -33 20 -295 20 -262 0 -276 -1 -295 -20z"/>
</g>
</svg>
